HIERARCHY
ROOT Hips
{
	OFFSET 0.00000 0.00000 0.00000
	CHANNELS 6 Xposition Yposition Zposition Zrotation Yrotation Xrotation 
	JOINT LHipJoint
	{
		OFFSET 0 0 0
		CHANNELS 3 Zrotation Yrotation Xrotation
		JOINT LeftUpLeg
		{
			OFFSET 1.37590 -1.78394 0.89329
			CHANNELS 3 Zrotation Yrotation Xrotation
			JOINT LeftLeg
			{
				OFFSET 2.47928 -6.81178 0.00000
				CHANNELS 3 Zrotation Yrotation Xrotation
				JOINT LeftFoot
				{
					OFFSET 2.63345 -7.23535 0.00000
					CHANNELS 3 Zrotation Yrotation Xrotation
					JOINT LeftToeBase
					{
						OFFSET 0.23938 -0.65768 2.27012
						CHANNELS 3 Zrotation Yrotation Xrotation
						End Site
						{
							OFFSET 0.00000 -0.00000 1.18363
						}
					}
				}
			}
		}
	}
	JOINT RHipJoint
	{
		OFFSET 0 0 0
		CHANNELS 3 Zrotation Yrotation Xrotation
		JOINT RightUpLeg
		{
			OFFSET -1.33617 -1.78394 0.89329
			CHANNELS 3 Zrotation Yrotation Xrotation
			JOINT RightLeg
			{
				OFFSET -2.56922 -7.05888 0.00000
				CHANNELS 3 Zrotation Yrotation Xrotation
				JOINT RightFoot
				{
					OFFSET -2.56568 -7.04915 0.00000
					CHANNELS 3 Zrotation Yrotation Xrotation
					JOINT RightToeBase
					{
						OFFSET -0.27533 -0.75646 2.18105
						CHANNELS 3 Zrotation Yrotation Xrotation
						End Site
						{
							OFFSET -0.00000 -0.00000 1.15233
						}
					}
				}
			}
		}
	}
	JOINT LowerBack
	{
		OFFSET 0 0 0
		CHANNELS 3 Zrotation Yrotation Xrotation
		JOINT Spine
		{
			OFFSET 0.06190 2.15152 -0.00935
			CHANNELS 3 Zrotation Yrotation Xrotation
			JOINT Spine1
			{
				OFFSET 0.06334 2.15332 0.00872
				CHANNELS 3 Zrotation Yrotation Xrotation
				JOINT Neck
				{
					OFFSET 0 0 0
					CHANNELS 3 Zrotation Yrotation Xrotation
					JOINT Neck1
					{
						OFFSET -0.04202 1.66908 0.23524
						CHANNELS 3 Zrotation Yrotation Xrotation
						JOINT Head
						{
							OFFSET 0.07510 1.69357 -0.24440
							CHANNELS 3 Zrotation Yrotation Xrotation
							End Site
							{
								OFFSET 0.02556 1.71719 -0.11000
							}
						}
					}
				}
				JOINT LeftShoulder
				{
					OFFSET 0 0 0
					CHANNELS 3 Zrotation Yrotation Xrotation
					JOINT LeftArm
					{
						OFFSET 3.67168 1.26306 -0.41342
						CHANNELS 3 Zrotation Yrotation Xrotation
						JOINT LeftForeArm
						{
							OFFSET 4.68510 -0.00000 -0.00000
							CHANNELS 3 Zrotation Yrotation Xrotation
							JOINT LeftHand
							{
								OFFSET 3.39626 -0.00000 -0.00000
								CHANNELS 3 Zrotation Yrotation Xrotation
								JOINT LeftFingerBase
								{
									OFFSET 0 0 0
									CHANNELS 3 Zrotation Yrotation Xrotation
									JOINT LeftHandIndex1
									{
										OFFSET 0.48608 -0.00000 -0.00000
										CHANNELS 3 Zrotation Yrotation Xrotation
										End Site
										{
											OFFSET 0.39189 -0.00000 -0.00000
										}
									}
								}
								JOINT LThumb
								{
									OFFSET 0 0 0
									CHANNELS 3 Zrotation Yrotation Xrotation
									End Site
									{
										OFFSET 0.39787 -0.00000 0.39787
									}
								}
							}
						}
					}
				}
				JOINT RightShoulder
				{
					OFFSET 0 0 0
					CHANNELS 3 Zrotation Yrotation Xrotation
					JOINT RightArm
					{
						OFFSET -3.04136 1.42992 -0.76390
						CHANNELS 3 Zrotation Yrotation Xrotation
						JOINT RightForeArm
						{
							OFFSET -5.55576 -0.00000 -0.00000
							CHANNELS 3 Zrotation Yrotation Xrotation
							JOINT RightHand
							{
								OFFSET -3.32774 -0.00000 -0.00000
								CHANNELS 3 Zrotation Yrotation Xrotation
								JOINT RightFingerBase
								{
									OFFSET 0 0 0
									CHANNELS 3 Zrotation Yrotation Xrotation
									JOINT RightHandIndex1
									{
										OFFSET -0.50763 -0.00000 -0.00000
										CHANNELS 3 Zrotation Yrotation Xrotation
										End Site
										{
											OFFSET -0.40926 -0.00000 -0.00000
										}
									}
								}
								JOINT RThumb
								{
									OFFSET 0 0 0
									CHANNELS 3 Zrotation Yrotation Xrotation
									End Site
									{
										OFFSET -0.41551 -0.00000 0.41551
									}
								}
							}
						}
					}
				}
			}
		}
	}
}
MOTION
Frames: 8
Frame Time: .0083333
-2.4184 17.5186 4.8106 -66.7446 -78.5890 74.0482 0.0000 0.0000 0.0000 0.7813 -13.3910 -37.4849 1.8776 8.6063 24.5714 0.1197 -0.2011 -6.4635 0.6328 -5.0899 -14.1650 0.0000 0.0000 0.0000 37.8208 4.0143 1.9215 -1.0311 -6.4590 18.1222 -1.1337 -3.1204 -21.4605 -0.1027 -2.0668 5.6903 6.6166 3.3570 -2.6841 1.4099 4.1698 0.8820 -2.0147 2.1619 2.7866 -7.6416 -3.7802 -16.5016 5.8026 -3.9716 -1.0355 2.7231 -1.8104 2.5573 0.0000 0.0000 0.0000 -92.4690 -0.7434 33.3351 30.2098 -41.0725 -11.5472 -0.0000 -0.0000 16.3722 15.4566 17.8607 4.8474 -7.1250 0.0000 -0.0000 -12.1401 48.0864 -0.9373 0.0000 0.0000 0.0000 90.8823 3.7613 40.9796 -38.3758 47.0777 -17.2403 0.0000 0.0000 14.5246 -24.0435 -25.2147 10.7613 7.1250 -0.0000 -0.0000 6.2177 -57.1481 -1.8553
-2.5881 17.4882 4.8106 -66.0958 -78.6037 73.4387 0.0000 0.0000 0.0000 0.7368 -13.7431 -37.6138 1.8492 8.5447 24.3811 0.1119 -0.3668 -6.1960 0.6176 -5.0296 -13.9929 0.0000 0.0000 0.0000 37.8200 3.8018 2.0572 -1.1037 -6.6754 18.7571 -1.1682 -3.1228 -21.7608 -0.0705 -1.7130 4.7132 6.5360 3.4954 -2.6902 1.2889 4.3632 0.8636 -2.0822 2.2589 2.7906 -7.7708 -3.9713 -16.4559 6.0233 -4.2124 -0.9640 2.7934 -1.9206 2.5969 0.0000 0.0000 0.0000 -92.6049 -0.7733 33.5214 30.0850 -40.9661 -11.4653 -0.0000 -0.0000 16.3623 15.4832 17.8516 4.8538 -7.1250 0.0000 -0.0000 -12.1122 48.0810 -0.9334 0.0000 0.0000 0.0000 91.5495 4.3401 41.8474 -36.2565 45.6888 -15.7057 0.0000 0.0000 14.4058 -23.7313 -24.9500 10.5058 7.1250 -0.0000 -0.0000 6.4467 -56.8042 -1.8704
-2.7595 17.4588 4.8120 -65.4384 -78.6293 72.8118 0.0000 0.0000 0.0000 0.6581 -14.0810 -37.7268 1.8370 8.5180 24.2988 0.1041 -0.5551 -5.9209 0.5993 -4.9559 -13.7828 0.0000 0.0000 0.0000 37.7901 3.5779 2.1615 -1.1855 -6.9098 19.4484 -1.1968 -3.1116 -21.9998 -0.0447 -1.3652 3.7543 6.4501 3.6277 -2.6888 1.1679 4.5493 0.8422 -2.1477 2.3519 2.7867 -7.8989 -4.1657 -16.4151 6.2597 -4.4589 -0.8807 2.8676 -2.0328 2.6425 -0.0000 0.0000 0.0000 -92.7422 -0.7818 33.6953 29.9481 -40.8489 -11.3757 -0.0000 -0.0000 16.3503 15.5020 17.8607 4.8623 -7.1250 0.0000 -0.0000 -12.0976 48.0928 -0.9359 -0.0000 0.0000 0.0000 92.1101 4.8788 42.7951 -34.3885 44.3705 -14.3840 0.0000 0.0000 14.2485 -23.4101 -24.6776 10.2462 7.1250 -0.0000 -0.0000 6.6810 -56.4517 -1.8818
-2.9324 17.4307 4.8147 -64.8029 -78.6685 72.2012 0.0000 0.0000 0.0000 0.5468 -14.3976 -37.8283 1.8406 8.5258 24.3229 0.0964 -0.7638 -5.6432 0.5777 -4.8672 -13.5301 0.0000 0.0000 0.0000 37.7305 3.3505 2.2310 -1.2774 -7.1627 20.1983 -1.2183 -3.0883 -22.1703 -0.0254 -1.0291 2.8290 6.3568 3.7551 -2.6828 1.0468 4.7295 0.8168 -2.2100 2.4416 2.7751 -8.0250 -4.3621 -16.3798 6.5105 -4.7097 -0.7845 2.9451 -2.1465 2.6945 0.0000 -0.0000 0.0000 -92.8794 -0.7678 33.8520 29.8017 -40.7228 -11.2800 -0.0000 -0.0000 16.3357 15.5132 17.8832 4.8719 -7.1250 0.0000 -0.0000 -12.0944 48.1170 -0.9429 0.0000 -0.0000 0.0000 92.5637 5.3751 43.8351 -32.7551 43.1410 -13.2543 0.0000 0.0000 14.0456 -23.0837 -24.4047 9.9872 7.1250 -0.0000 -0.0000 6.9193 -56.0991 -1.8902
-3.1069 17.4039 4.8188 -64.1797 -78.7207 71.5961 0.0000 0.0000 0.0000 0.4018 -14.6932 -37.9141 1.8589 8.5658 24.4462 0.0888 -0.9927 -5.3647 0.5529 -4.7631 -13.2342 0.0000 0.0000 0.0000 37.6404 3.1171 2.2647 -1.3799 -7.4333 21.0056 -1.2312 -3.0572 -22.2628 -0.0118 -0.7029 1.9315 6.2567 3.8763 -2.6725 0.9257 4.9019 0.7886 -2.2696 2.5270 2.7572 -8.1491 -4.5596 -16.3491 6.7759 -4.9638 -0.6777 3.0261 -2.2610 2.7522 0.0000 -0.0000 0.0000 -93.0167 -0.7337 33.9888 29.6466 -40.5886 -11.1790 -0.0000 -0.0000 16.3171 15.5206 17.9166 4.8831 -7.1250 0.0000 -0.0000 -12.0984 48.1514 -0.9536 0.0000 -0.0000 0.0000 92.9100 5.8266 44.9738 -31.3437 42.0176 -12.2993 0.0000 0.0000 13.7932 -22.7504 -24.1327 9.7287 7.1250 -0.0000 -0.0000 7.1640 -55.7472 -1.8963
-3.2829 17.3787 4.8242 -63.5573 -78.7858 70.9829 0.0000 0.0000 0.0000 0.2202 -14.9681 -37.9791 1.8911 8.6355 24.6617 0.0812 -1.2410 -5.0893 0.5253 -4.6447 -12.8980 0.0000 0.0000 0.0000 37.5176 2.8748 2.2614 -1.4940 -7.7213 21.8708 -1.2341 -3.0266 -22.2726 -0.0037 -0.3916 1.0759 6.1488 3.9892 -2.6579 0.8056 5.0638 0.7591 -2.3249 2.6070 2.7339 -8.2693 -4.7569 -16.3238 7.0518 -5.2196 -0.5601 3.1091 -2.3757 2.8155 0.0000 -0.0000 0.0000 -93.1540 -0.6804 34.1022 29.4848 -40.4476 -11.0738 -0.0000 -0.0000 16.2899 15.5213 17.9660 4.8963 -7.1250 0.0000 -0.0000 -12.1140 48.2011 -0.9699 0.0000 -0.0000 0.0000 93.1484 6.2321 46.2161 -30.1418 41.0147 -11.5026 0.0000 0.0000 13.4932 -22.4094 -23.8612 9.4703 7.1250 -0.0000 -0.0000 7.4155 -55.3959 -1.9000
-3.4602 17.3551 4.8308 -62.9452 -78.8645 70.3722 0.0000 0.0000 0.0000 0.0039 -15.2195 -38.0229 1.9366 8.7328 24.9631 0.0736 -1.5065 -4.8211 0.4950 -4.5109 -12.5185 0.0000 0.0000 0.0000 37.3626 2.6274 2.2186 -1.6207 -8.0269 22.7958 -1.2271 -2.9988 -22.1997 -0.0002 -0.0938 0.2578 6.0328 4.0939 -2.6389 0.6861 5.2151 0.7270 -2.3764 2.6813 2.7038 -8.3848 -4.9528 -16.3027 7.3382 -5.4760 -0.4310 3.1940 -2.4900 2.8843 -0.0000 0.0000 0.0000 -93.2903 -0.6069 34.1877 29.3171 -40.3008 -10.9652 -0.0000 -0.0000 16.2572 15.5169 18.0194 4.9088 -7.1250 0.0000 -0.0000 -12.1356 48.2538 -0.9876 -0.0000 0.0000 0.0000 93.2804 6.5889 47.5621 -29.1406 40.1453 -10.8512 0.0000 0.0000 13.1471 -22.0686 -23.5961 9.2178 7.1250 -0.0000 -0.0000 7.6680 -55.0526 -1.9011
-3.6388 17.3335 4.8387 -62.3455 -78.9568 69.7664 0.0000 0.0000 0.0000 -0.2461 -15.4476 -38.0424 1.9945 8.8546 25.3416 0.0661 -1.7863 -4.5647 0.4625 -4.3624 -12.0985 0.0000 0.0000 0.0000 37.1748 2.3768 2.1339 -1.7613 -8.3500 23.7823 -1.2104 -2.9731 -22.0468 -0.0008 0.1804 -0.4958 5.9082 4.1897 -2.6167 0.5682 5.3548 0.6929 -2.4227 2.7495 2.6679 -8.4958 -5.1460 -16.2856 7.6336 -5.7314 -0.2913 3.2806 -2.6031 2.9583 -0.0000 -0.0000 0.0000 -93.4258 -0.5130 34.2437 29.1451 -40.1492 -10.8541 -0.0000 -0.0000 16.2140 15.5104 18.0849 4.9238 -7.1250 0.0000 -0.0000 -12.1633 48.3186 -1.0096 -0.0000 -0.0000 0.0000 93.3049 6.8953 49.0081 -28.3324 39.4205 -10.3341 0.0000 0.0000 12.7631 -21.7268 -23.3312 8.9684 7.1250 -0.0000 -0.0000 7.9202 -54.7108 -1.8982
